<svg xmlns="http://www.w3.org/2000/svg" xmlns:xlink="http://www.w3.org/1999/xlink" xmlns:lucid="lucid" width="1151.2" height="812.38"><g transform="translate(-400 -187.6152395013123)" lucid:page-tab-id="0_0"><path d="M1134.63 213.62a6 6 0 0 1 6-6h384.57a6 6 0 0 1 6 6v75.6a6 6 0 0 1-6 6h-384.57a6 6 0 0 1-6-6z" fill="#fff" fill-opacity="0"/><path d="M1174.3 207.62h-33.66a6 6 0 0 0-6 6v75.6a6 6 0 0 0 6 6h33.65" stroke="#3a414a" fill="none"/><use xlink:href="#a" transform="matrix(1,0,0,1,1164.4206036745406,212.6152395013123) translate(0 33.759114583333336)"/><use xlink:href="#b" transform="matrix(1,0,0,1,1164.4206036745406,212.6152395013123) translate(91.90538194444444 33.759114583333336)"/><use xlink:href="#c" transform="matrix(1,0,0,1,1164.4206036745406,212.6152395013123) translate(133.73480902777777 33.759114583333336)"/><use xlink:href="#d" transform="matrix(1,0,0,1,1164.4206036745406,212.6152395013123) translate(0 59.627170138888886)"/><use xlink:href="#e" transform="matrix(1,0,0,1,1164.4206036745406,212.6152395013123) translate(150.1953125 59.627170138888886)"/><use xlink:href="#f" transform="matrix(1,0,0,1,1164.4206036745406,212.6152395013123) translate(233.18142361111111 59.627170138888886)"/><path d="M606.1 366a6 6 0 0 1 6-6h206.67a6 6 0 0 1 6 6v108a6 6 0 0 1-6 6H612.1a6 6 0 0 1-6-6z" stroke="#3a414a" fill="#fff"/><use xlink:href="#g" transform="matrix(1,0,0,1,618.0997375328084,372) translate(7.439236111111114 41.627170138888886)"/><use xlink:href="#h" transform="matrix(1,0,0,1,618.0997375328084,372) translate(43.47981770833334 67.49522569444444)"/><path d="M606.1 217.42a6 6 0 0 1 6-6h206.67a6 6 0 0 1 6 6v70.66a6 6 0 0 1-6 6H612.1a6 6 0 0 1-6-6z" stroke="#3a414a" fill="#fff"/><use xlink:href="#i" transform="matrix(1,0,0,1,618.0997375328084,223.41732283464557) translate(42.465277777777786 35.377170138888886)"/><path d="M660 706a6 6 0 0 1 6-6h206.67a6 6 0 0 1 6 6v70.67a6 6 0 0 1-6 6H666a6 6 0 0 1-6-6z" stroke="#3a414a" fill="#fff"/><use xlink:href="#j" transform="matrix(1,0,0,1,672,712) translate(1.4605034722222143 35.377170138888886)"/><use xlink:href="#k" transform="matrix(1,0,0,1,672,712) translate(92.16145833333333 35.377170138888886)"/><path d="M1178.33 687.33a6 6 0 0 1 6-6H1391a6 6 0 0 1 6 6v108a6 6 0 0 1-6 6h-206.67a6 6 0 0 1-6-6z" stroke="#3a414a" fill="#fff"/><use xlink:href="#l" transform="matrix(1,0,0,1,1190.3331867312543,693.3333333333334) translate(43.31705729166667 41.627170138888886)"/><use xlink:href="#m" transform="matrix(1,0,0,1,1190.3331867312543,693.3333333333334) translate(21.642795138888886 67.49522569444444)"/><path d="M420 526a6 6 0 0 1 6-6h206.67a6 6 0 0 1 6 6v108a6 6 0 0 1-6 6H426a6 6 0 0 1-6-6z" stroke="#3a414a" fill="#fff"/><use xlink:href="#n" transform="matrix(1,0,0,1,432,531.9999999999999) translate(34.32183159722223 41.627170138888886)"/><use xlink:href="#o" transform="matrix(1,0,0,1,432,531.9999999999999) translate(47.32096354166667 67.49522569444444)"/><path d="M897.3 217.42a6 6 0 0 1 6-6h206.67a6 6 0 0 1 6 6v70.66a6 6 0 0 1-6 6H903.3a6 6 0 0 1-6-6z" stroke="#3a414a" fill="#fff"/><use xlink:href="#p" transform="matrix(1,0,0,1,909.3018372703414,223.4173228346456) translate(48.76410590277778 35.377170138888886)"/><path d="M1081.33 544.67a6 6 0 0 1 6-6H1294a6 6 0 0 1 6 6v70.66a6 6 0 0 1-6 6h-206.67a6 6 0 0 1-6-6z" stroke="#3a414a" fill="#fff"/><use xlink:href="#q" transform="matrix(1,0,0,1,1093.3333333333335,550.6666666666665) translate(39.79058159722222 35.377170138888886)"/><path d="M920 846a6 6 0 0 1 6-6h206.67a6 6 0 0 1 6 6v128a6 6 0 0 1-6 6H926a6 6 0 0 1-6-6z" stroke="#3a414a" fill="#fff"/><use xlink:href="#r" transform="matrix(1,0,0,1,932,852) translate(41.228298611111114 38.752170138888886)"/><use xlink:href="#s" transform="matrix(1,0,0,1,932,852) translate(25.478515625 64.62022569444444)"/><use xlink:href="#t" transform="matrix(1,0,0,1,932,852) translate(23.107638888888886 90.48828125)"/><path d="M825.77 252.75h54.65" stroke="#3a414a" fill="none"/><path d="M825.78 253.25h-.5v-1h.5z" stroke="#3a414a" stroke-width=".05" fill="#3a414a"/><path d="M895.18 252.75l-14.26 4.64v-9.28z" stroke="#3a414a" fill="#3a414a"/><path d="M715.43 295.08v48.04" stroke="#3a414a" fill="none"/><path d="M715.93 295.1h-1v-.52h1z" stroke="#3a414a" stroke-width=".05" fill="#3a414a"/><path d="M715.43 357.88l-4.63-14.26h9.27z" stroke="#3a414a" fill="#3a414a"/><path d="M825.77 420h358.9a6 6 0 0 1 6 6v95.78" stroke="#3a414a" fill="none"/><path d="M825.78 420.5h-.5v-1h.5z" stroke="#3a414a" stroke-width=".05" fill="#3a414a"/><path d="M1190.67 536.55l-4.64-14.27h9.27z" stroke="#3a414a" fill="#3a414a"/><path d="M1287.67 622.33v42.12" stroke="#3a414a" fill="none"/><path d="M1288.17 622.35h-1v-.52h1z" stroke="#3a414a" stroke-width=".05" fill="#3a414a"/><path d="M1287.67 679.2l-4.64-14.25h9.27z" stroke="#3a414a" fill="#3a414a"/><path d="M1105.33 622.33v113a6 6 0 0 1-6 6H895.55" stroke="#3a414a" fill="none"/><path d="M1105.83 622.35h-1v-.52h1z" stroke="#3a414a" stroke-width=".05" fill="#3a414a"/><path d="M880.8 741.33l14.25-4.63v9.27z" stroke="#3a414a" fill="#3a414a"/><path d="M605.1 420h-69.77a6 6 0 0 0-6 6v77.12" stroke="#3a414a" fill="none"/><path d="M605.6 420.5h-.5v-1h.5z" stroke="#3a414a" stroke-width=".05" fill="#3a414a"/><path d="M529.33 517.88l-4.63-14.26h9.27z" stroke="#3a414a" fill="#3a414a"/><path d="M529.33 641v94.33a6 6 0 0 0 6 6h107.8" stroke="#3a414a" fill="none"/><path d="M529.83 641h-1v-.5h1z" stroke="#3a414a" stroke-width=".05" fill="#3a414a"/><path d="M657.88 741.33l-14.26 4.64v-9.27z" stroke="#3a414a" fill="#3a414a"/><path d="M769.33 783.67V904a6 6 0 0 0 6 6h127.8" stroke="#3a414a" fill="none"/><path d="M769.83 783.68h-1v-.5h1z" stroke="#3a414a" stroke-width=".05" fill="#3a414a"/><path d="M917.88 910l-14.26 4.63v-9.26z" stroke="#3a414a" fill="#3a414a"/><path d="M1287.67 802.33V904a6 6 0 0 1-6 6h-126.12" stroke="#3a414a" fill="none"/><path d="M1288.17 802.35h-1v-.52h1z" stroke="#3a414a" stroke-width=".05" fill="#3a414a"/><path d="M1140.8 910l14.25-4.63v9.26z" stroke="#3a414a" fill="#3a414a"/><defs><path fill="#3a414a" d="M1141-289c47 27 51 110 13 159C1076-28 927 20 739 20c-439 0-622-310-622-753 0-346 130-585 372-695 199-90 579-71 673 84 39 64 27 161-25 196-32 21-74 38-127 38-5-158-78-264-240-264-349 0-426 285-426 641 0 266 62 478 232 573 54 30 119 45 194 45 183 1 293-72 371-174" id="u"/><path fill="#3a414a" d="M594-1118c338 0 472 222 475 567 2 360-143 571-481 571S115-205 113-551c-2-359 142-567 481-567zm-4 108c-241 0-279 212-279 459 0 249 39 465 281 465s278-216 278-465c0-248-38-459-280-459" id="v"/><path fill="#3a414a" d="M233-332c4 153 72 251 226 254 155 3 230-91 231-241 1-143-95-200-239-201H260v-111h193c130-3 206-69 206-196 0-123-59-194-184-195-137-2-212 85-211 221-100-1-162-28-162-123 0-112 103-150 208-176 48-11 104-16 169-16 208 0 375 68 375 268 0 150-92 225-207 266v11c131 34 242 94 242 254C889-73 706 17 449 20 319 21 224-4 156-54c-46-34-74-81-74-147 0-87 50-131 151-131" id="w"/><path fill="#3a414a" d="M948-223c-1 77 30 114 86 129h115v524h-100C1037 228 1033 0 840 0H336C123-3 145 233 127 430H27V-94h141c99-178 162-442 200-694 5-38 7-71 7-97 2-110-83-131-195-127v-86h963v86c-118-6-195 22-195 138v651zm-456-781c-32 295-81 589-165 828-12 36-25 63-38 82h467v-910H492" id="x"/><path fill="#3a414a" d="M467-106c176 0 267-107 272-285v-166c-189 6-378 9-423 154-10 31-15 66-15 106 0 123 47 191 166 191zm272-535c5-199 13-375-190-375-142 0-190 83-187 223-106-2-174-27-174-129 0-169 191-191 369-196 250-7 375 104 375 354v531c-3 100 32 153 133 147V0H788l-32-176h-17C664-76 596 23 420 20 213 16 102-97 102-307c0-109 41-186 116-242 100-75 325-89 521-92" id="y"/><path fill="#3a414a" d="M786-645c-4-191-36-363-223-363-76 0-134 30-175 92s-66 152-73 271h471zm123 393c43 21 51 90 17 136C862-29 744 20 588 20c-331 0-471-225-475-561-4-348 134-577 454-577 327 0 443 231 426 583H311c7 242 67 426 305 426 140 0 234-60 293-143" id="z"/><path fill="#3a414a" d="M270-86c118 6 195-21 195-137v-781c-94 7-221-23-269 35-36 43-42 127-55 199H41l12-328h1014l12 328H979c-20-114-16-234-154-234H657v781C652-99 746-79 872-86V0H270v-86" id="A"/><g id="a"><use transform="matrix(0.010850694444444444,0,0,0.010850694444444444,0,0)" xlink:href="#u"/><use transform="matrix(0.010850694444444444,0,0,0.010850694444444444,13.194444444444445,0)" xlink:href="#v"/><use transform="matrix(0.010850694444444444,0,0,0.010850694444444444,26.01996527777778,0)" xlink:href="#w"/><use transform="matrix(0.010850694444444444,0,0,0.010850694444444444,36.66449652777778,0)" xlink:href="#x"/><use transform="matrix(0.010850694444444444,0,0,0.010850694444444444,49.57682291666667,0)" xlink:href="#y"/><use transform="matrix(0.010850694444444444,0,0,0.010850694444444444,62.08767361111112,0)" xlink:href="#z"/><use transform="matrix(0.010850694444444444,0,0,0.010850694444444444,73.98003472222223,0)" xlink:href="#A"/></g><path fill="#3a414a" d="M242-872c3-116-77-146-195-140v-86h596c143 0 249 23 315 68s99 111 99 196c-1 162-89 239-232 259v10c155 22 281 79 281 252C1106-84 924 0 682 0H47v-86c118 6 195-21 195-137v-649zm657 553c-2-155-108-197-268-197H434v422h209c166 3 258-59 256-225zm-39-494c0-135-87-190-227-191H434v390h199c143 0 227-59 227-199" id="B"/><path fill="#3a414a" d="M893-256c39 28 47 103 13 150C845-22 730 20 580 20c-332 0-467-220-467-563 0-349 119-575 456-575 140 0 259 39 325 116 44 51 42 161-14 193-31 18-76 29-137 29-1-134-38-239-174-236-232 6-258 224-258 471 0 264 65 427 310 432 127 2 227-62 272-143" id="C"/><g id="b"><use transform="matrix(0.010850694444444444,0,0,0.010850694444444444,0,0)" xlink:href="#B"/><use transform="matrix(0.010850694444444444,0,0,0.010850694444444444,13.226996527777777,0)" xlink:href="#C"/><use transform="matrix(0.010850694444444444,0,0,0.010850694444444444,24.16449652777778,0)" xlink:href="#z"/></g><path fill="#3a414a" d="M90-254c-4 103 152 127 205 49 94-137 136-375 169-583 6-38 7-71 7-97 2-110-83-131-195-127v-86h963v86c-118-6-195 22-195 138v651c-3 116 77 143 195 137V0H678v-86c108 4 174-29 174-137v-781H588c-36 302-75 611-178 844C365-58 305 13 164 14 62 15 1-33 0-129c-1-63 30-125 90-125" id="D"/><path fill="#3a414a" d="M242-872c3-116-77-146-195-140v-86h582v86c-118-6-195 24-195 140v262c324-1 672-25 672 297C1106-84 924 0 682 0H47v-86c118 6 195-21 195-137v-649zm657 548c-3-151-110-192-268-192H434v422h209c169 3 259-62 256-230" id="E"/><path fill="#3a414a" d="M975-872c2-108-66-143-174-140v-86h561v86c-118-6-195 22-195 138v651c-3 116 77 143 195 137V0H801v-86c108 4 174-29 174-137v-293H434v293c-3 108 66 141 174 137V0H47v-86c118 6 195-21 195-137v-649c3-116-77-146-195-140v-86h561v86c-108-4-174 30-174 138v264h541v-262" id="F"/><path fill="#3a414a" d="M242-872c3-116-77-146-195-140v-86h582v86c-118-6-195 24-195 140v262c306-4 610-3 610 297C1044-84 862 0 621 0H47v-86c118 6 195-21 195-137v-649zm596 548c0-198-200-197-404-192v422h148c169 3 256-62 256-230zm419-548c2-108-66-143-174-140v-86h541v86c-108-4-174 30-174 138v651c-3 108 66 141 174 137V0h-541v-86c108 4 174-29 174-137v-649" id="G"/><g id="c"><use transform="matrix(0.010850694444444444,0,0,0.010850694444444444,0,0)" xlink:href="#v"/><use transform="matrix(0.010850694444444444,0,0,0.010850694444444444,12.825520833333332,0)" xlink:href="#C"/><use transform="matrix(0.010850694444444444,0,0,0.010850694444444444,23.763020833333332,0)" xlink:href="#A"/><use transform="matrix(0.010850694444444444,0,0,0.010850694444444444,35.91579861111111,0)" xlink:href="#y"/><use transform="matrix(0.010850694444444444,0,0,0.010850694444444444,48.42664930555556,0)" xlink:href="#D"/><use transform="matrix(0.010850694444444444,0,0,0.010850694444444444,62.38064236111111,0)" xlink:href="#E"/><use transform="matrix(0.010850694444444444,0,0,0.010850694444444444,75.60763888888889,0)" xlink:href="#F"/><use transform="matrix(0.010850694444444444,0,0,0.010850694444444444,90.89626736111111,0)" xlink:href="#G"/><use transform="matrix(0.010850694444444444,0,0,0.010850694444444444,109.25564236111111,0)" xlink:href="#z"/></g><path fill="#3a414a" d="M1114-856c-13-63-43-115-115-115-33 0-64 13-92 39-87 80-159 247-260 316 139 5 192 88 250 178 88 137 131 347 342 352V0c-167 3-305-4-377-96-80-102-131-261-209-367-43-57-116-68-219-67v307c-3 108 66 141 174 137V0H37v-86c127 8 205-23 205-147v-639c3-120-82-147-205-140v-86h571v86c-103-2-174 25-174 129v258c123 2 152-45 207-120 82-112 155-292 294-349 28-11 62-16 101-16 119 0 203 62 168 176-13 41-46 68-90 78" id="H"/><path fill="#3a414a" d="M1370-223c-3 116 77 143 195 137V0h-561v-86c108 4 174-29 174-137v-656h-15L807 0h-94L367-879h-15v656c-3 108 66 141 174 137V0H47v-86c118 6 195-21 195-137v-649c3-116-77-146-195-140v-86h438l324 828 338-828h418v86c-118-6-195 22-195 138v651" id="I"/><path fill="#3a414a" d="M242-872c3-116-77-146-195-140v-86h1274v86c-118-6-195 22-195 138v651c-3 116 77 143 195 137V0H760v-86c108 4 174-29 174-137v-781H434v781c-3 108 66 141 174 137V0H47v-86c118 6 195-21 195-137v-649" id="J"/><g id="d"><use transform="matrix(0.010850694444444444,0,0,0.010850694444444444,0,0)" xlink:href="#H"/><use transform="matrix(0.010850694444444444,0,0,0.010850694444444444,13.45486111111111,0)" xlink:href="#v"/><use transform="matrix(0.010850694444444444,0,0,0.010850694444444444,26.280381944444443,0)" xlink:href="#I"/><use transform="matrix(0.010850694444444444,0,0,0.010850694444444444,43.771701388888886,0)" xlink:href="#J"/><use transform="matrix(0.010850694444444444,0,0,0.010850694444444444,58.615451388888886,0)" xlink:href="#v"/><use transform="matrix(0.010850694444444444,0,0,0.010850694444444444,71.44097222222221,0)" xlink:href="#F"/><use transform="matrix(0.010850694444444444,0,0,0.010850694444444444,86.72960069444443,0)" xlink:href="#z"/><use transform="matrix(0.010850694444444444,0,0,0.010850694444444444,98.62196180555556,0)" xlink:href="#F"/><use transform="matrix(0.010850694444444444,0,0,0.010850694444444444,113.91059027777777,0)" xlink:href="#A"/><use transform="matrix(0.010850694444444444,0,0,0.010850694444444444,126.06336805555556,0)" xlink:href="#G"/></g><path fill="#3a414a" d="M643-1464c-244 139-313 433-313 815s69 678 313 817v94C288 130 117-156 117-649c0-361 84-614 285-771 67-53 147-99 241-136v92" id="K"/><path fill="#3a414a" d="M946-553c0-230-32-430-254-434-242-4-278 193-278 436s40 440 280 440c221 0 252-212 252-442zm-219-565c321 0 418 237 418 567 0 331-96 571-418 571-163 0-254-75-313-180h-8c7 140 10 280 8 428-2 108 66 142 174 138v86H37v-86c118 6 184-32 184-148V-872c3-116-76-146-194-140v-86h358l21 185h8c57-116 142-205 313-205" id="L"/><g id="e"><use transform="matrix(0.010850694444444444,0,0,0.010850694444444444,0,0)" xlink:href="#K"/><use transform="matrix(0.010850694444444444,0,0,0.010850694444444444,7.693142361111111,0)" xlink:href="#H"/><use transform="matrix(0.010850694444444444,0,0,0.010850694444444444,21.36501736111111,0)" xlink:href="#L"/><use transform="matrix(0.010850694444444444,0,0,0.010850694444444444,35.00434027777778,0)" xlink:href="#v"/><use transform="matrix(0.010850694444444444,0,0,0.010850694444444444,47.82986111111111,0)" xlink:href="#I"/><use transform="matrix(0.010850694444444444,0,0,0.010850694444444444,65.32118055555556,0)" xlink:href="#z"/></g><path fill="#3a414a" d="M1696-225c-3 115 76 146 194 139V0H47v-86c119 7 195-23 195-139v-649c3-116-77-144-195-138v-86h549v86c-108-4-174 30-174 138v780h457v-780c2-108-66-142-174-138v-86h528v86c-108-4-174 30-174 138v780h457v-780c2-108-66-142-175-138v-86h549v86c-118-6-194 22-194 138v649" id="M"/><path fill="#3a414a" d="M301-799c0 142 79 217 225 217h199v-422H526c-142 1-225 68-225 205zM530-86c118 6 195-21 195-137v-260H555L385-166C330-38 208 4 16 0v-86c99 1 136-58 174-123l181-311c-146-34-269-113-269-287 0-226 179-291 414-291h576v86c-108-3-174 32-174 140v649c-3 116 76 143 194 137V0H530v-86" id="N"/><path fill="#3a414a" d="M66 168C309 28 379-267 379-649s-70-676-313-815v-92c355 132 526 415 526 907 0 361-85 617-285 775-67 53-147 99-241 136v-94" id="O"/><g id="f"><use transform="matrix(0.010850694444444444,0,0,0.010850694444444444,0,0)" xlink:href="#L"/><use transform="matrix(0.010850694444444444,0,0,0.010850694444444444,13.639322916666666,0)" xlink:href="#z"/><use transform="matrix(0.010850694444444444,0,0,0.010850694444444444,25.53168402777778,0)" xlink:href="#M"/><use transform="matrix(0.010850694444444444,0,0,0.010850694444444444,46.54947916666667,0)" xlink:href="#y"/><use transform="matrix(0.010850694444444444,0,0,0.010850694444444444,59.06032986111112,0)" xlink:href="#A"/><use transform="matrix(0.010850694444444444,0,0,0.010850694444444444,71.21310763888889,0)" xlink:href="#z"/><use transform="matrix(0.010850694444444444,0,0,0.010850694444444444,83.10546875,0)" xlink:href="#D"/><use transform="matrix(0.010850694444444444,0,0,0.010850694444444444,97.05946180555556,0)" xlink:href="#N"/><use transform="matrix(0.010850694444444444,0,0,0.010850694444444444,109.41840277777777,0)" xlink:href="#O"/></g><path fill="#3a414a" d="M281-1094c-93 1-172-40-168-129 7-145 120-205 250-239 134-35 326-28 441 26 230 108 335 353 335 693 0 345-115 597-349 709C580 66 196 28 114-142c-33-68-27-163 24-203 31-25 73-38 126-38 7 176 90 295 271 295 297 0 357-298 376-600H346v-100h565c-9-244-43-453-195-547-43-27-97-39-159-39-174 0-267 110-276 280" id="P"/><path fill="#3a414a" d="M1192-1118c330 0 452 229 455 567 3 355-132 571-461 571-320 0-443-217-455-536H434v293c-3 108 66 141 174 137V0H47v-86c118 6 195-21 195-137v-649c3-116-77-146-195-140v-86h561v86c-108-4-174 30-174 138v264h297c15-317 149-508 461-508zm-4 108c-232 0-258 219-258 459 0 241 27 465 260 465 231 0 258-224 258-465 0-240-29-459-260-459" id="Q"/><path fill="#3a414a" d="M1147-229c-4 115 76 142 194 135v524h-100c-11-202-13-430-209-430H68v-86c108 4 174-31 174-139v-649c3-116-77-144-195-138v-86h582v86c-118-6-195 22-195 138v780h520v-780c3-116-76-144-194-138v-86h581v86c-118-6-194 22-194 138v645" id="R"/><path fill="#3a414a" d="M975-866c4-113-64-149-174-146v-86h561v86c-118-6-195 22-195 138v651c-3 116 77 143 195 137V0H780v-86c118 6 195-21 195-137v-510L434-233c-7 124 73 154 195 147V0H47v-86c118 6 195-21 195-137v-649c3-116-77-146-195-140v-86h582v86c-118-6-195 22-195 138v512" id="S"/><path fill="#3a414a" d="M713-1331c134 0 199-64 211-187h174c-22 199-164 276-389 277s-364-70-377-277h170c5 133 67 187 211 187zm262 465c4-113-64-149-174-146v-86h561v86c-118-6-195 22-195 138v651c-3 116 77 143 195 137V0H780v-86c118 6 195-21 195-137v-510L434-233c-7 124 73 154 195 147V0H47v-86c118 6 195-21 195-137v-649c3-116-77-146-195-140v-86h582v86c-118-6-195 22-195 138v512" id="T"/><g id="g"><use transform="matrix(0.010850694444444444,0,0,0.010850694444444444,0,0)" xlink:href="#P"/><use transform="matrix(0.010850694444444444,0,0,0.010850694444444444,13.617621527777777,0)" xlink:href="#B"/><use transform="matrix(0.010850694444444444,0,0,0.010850694444444444,26.844618055555554,0)" xlink:href="#v"/><use transform="matrix(0.010850694444444444,0,0,0.010850694444444444,39.670138888888886,0)" xlink:href="#D"/><use transform="matrix(0.010850694444444444,0,0,0.010850694444444444,53.62413194444444,0)" xlink:href="#Q"/><use transform="matrix(0.010850694444444444,0,0,0.010850694444444444,72.71050347222223,0)" xlink:href="#R"/><use transform="matrix(0.010850694444444444,0,0,0.010850694444444444,87.78211805555556,0)" xlink:href="#S"/><use transform="matrix(0.010850694444444444,0,0,0.010850694444444444,103.07074652777777,0)" xlink:href="#v"/><use transform="matrix(0.010850694444444444,0,0,0.010850694444444444,115.8962673611111,0)" xlink:href="#F"/><use transform="matrix(0.010850694444444444,0,0,0.010850694444444444,131.18489583333331,0)" xlink:href="#F"/><use transform="matrix(0.010850694444444444,0,0,0.010850694444444444,146.47352430555554,0)" xlink:href="#G"/><use transform="matrix(0.010850694444444444,0,0,0.010850694444444444,164.83289930555554,0)" xlink:href="#T"/></g><path fill="#3a414a" d="M242-872c3-116-77-146-195-140v-86h850v328H797c-21-112-17-234-154-234H434v781C429-99 523-79 649-86V0H47v-86c118 6 195-21 195-137v-649" id="U"/><g id="h"><use transform="matrix(0.010850694444444444,0,0,0.010850694444444444,0,0)" xlink:href="#y"/><use transform="matrix(0.010850694444444444,0,0,0.010850694444444444,12.510850694444445,0)" xlink:href="#D"/><use transform="matrix(0.010850694444444444,0,0,0.010850694444444444,26.46484375,0)" xlink:href="#U"/><use transform="matrix(0.010850694444444444,0,0,0.010850694444444444,36.642795138888886,0)" xlink:href="#v"/><use transform="matrix(0.010850694444444444,0,0,0.010850694444444444,49.46831597222221,0)" xlink:href="#L"/><use transform="matrix(0.010850694444444444,0,0,0.010850694444444444,63.10763888888888,0)" xlink:href="#S"/><use transform="matrix(0.010850694444444444,0,0,0.010850694444444444,78.3962673611111,0)" xlink:href="#A"/><use transform="matrix(0.010850694444444444,0,0,0.010850694444444444,90.54904513888887,0)" xlink:href="#I"/></g><path fill="#3a414a" d="M479-223C473-90 582-80 715-86V0H78v-86c122 7 194-27 194-147v-1004c3-115-76-146-194-139v-86h575c309 2 504 125 504 428 0 321-213 462-549 465H479v346zm457-803c0-225-92-342-318-338H479v698h109c246 7 348-114 348-360" id="V"/><g id="i"><use transform="matrix(0.010850694444444444,0,0,0.010850694444444444,0,0)" xlink:href="#V"/><use transform="matrix(0.010850694444444444,0,0,0.010850694444444444,13.422309027777777,0)" xlink:href="#z"/><use transform="matrix(0.010850694444444444,0,0,0.010850694444444444,25.31467013888889,0)" xlink:href="#M"/><use transform="matrix(0.010850694444444444,0,0,0.010850694444444444,46.33246527777778,0)" xlink:href="#y"/><use transform="matrix(0.010850694444444444,0,0,0.010850694444444444,58.84331597222221,0)" xlink:href="#A"/><use transform="matrix(0.010850694444444444,0,0,0.010850694444444444,70.99609374999999,0)" xlink:href="#z"/><use transform="matrix(0.010850694444444444,0,0,0.010850694444444444,82.8884548611111,0)" xlink:href="#D"/><use transform="matrix(0.010850694444444444,0,0,0.010850694444444444,96.84244791666666,0)" xlink:href="#E"/></g><path fill="#3a414a" d="M115-735c0-455 195-750 647-750 335 0 516 182 599 443 56 178 56 438 0 617-83 263-265 445-601 445-453 0-645-301-645-755zm647-639c-345 0-420 288-420 641S416-90 760-90s416-291 416-643c0-351-70-641-414-641" id="W"/><g id="j"><use transform="matrix(0.010850694444444444,0,0,0.010850694444444444,0,0)" xlink:href="#W"/><use transform="matrix(0.010850694444444444,0,0,0.010850694444444444,16.493055555555554,0)" xlink:href="#R"/><use transform="matrix(0.010850694444444444,0,0,0.010850694444444444,31.56467013888889,0)" xlink:href="#z"/><use transform="matrix(0.010850694444444444,0,0,0.010850694444444444,43.45703125,0)" xlink:href="#F"/><use transform="matrix(0.010850694444444444,0,0,0.010850694444444444,58.74565972222222,0)" xlink:href="#H"/><use transform="matrix(0.010850694444444444,0,0,0.010850694444444444,72.41753472222223,0)" xlink:href="#y"/></g><g id="k"><use transform="matrix(0.010850694444444444,0,0,0.010850694444444444,0,0)" xlink:href="#L"/><use transform="matrix(0.010850694444444444,0,0,0.010850694444444444,13.639322916666666,0)" xlink:href="#z"/><use transform="matrix(0.010850694444444444,0,0,0.010850694444444444,25.53168402777778,0)" xlink:href="#M"/><use transform="matrix(0.010850694444444444,0,0,0.010850694444444444,46.54947916666667,0)" xlink:href="#z"/><use transform="matrix(0.010850694444444444,0,0,0.010850694444444444,58.441840277777786,0)" xlink:href="#F"/><use transform="matrix(0.010850694444444444,0,0,0.010850694444444444,73.73046875,0)" xlink:href="#S"/><use transform="matrix(0.010850694444444444,0,0,0.010850694444444444,89.01909722222221,0)" xlink:href="#N"/></g><path fill="#3a414a" d="M272-1237c3-115-76-146-194-139v-86h1407v86c-122-7-195 27-195 147v1006c-3 116 77 143 195 137V0H889v-86c122 7 194-27 194-147v-1127H479v1127c-3 120 73 154 195 147V0H78v-86c122 7 194-27 194-147v-1004" id="X"/><g id="l"><use transform="matrix(0.010850694444444444,0,0,0.010850694444444444,0,0)" xlink:href="#X"/><use transform="matrix(0.010850694444444444,0,0,0.010850694444444444,16.959635416666664,0)" xlink:href="#L"/><use transform="matrix(0.010850694444444444,0,0,0.010850694444444444,30.59895833333333,0)" xlink:href="#v"/><use transform="matrix(0.010850694444444444,0,0,0.010850694444444444,43.42447916666666,0)" xlink:href="#B"/><use transform="matrix(0.010850694444444444,0,0,0.010850694444444444,56.651475694444436,0)" xlink:href="#z"/><use transform="matrix(0.010850694444444444,0,0,0.010850694444444444,68.54383680555554,0)" xlink:href="#L"/><use transform="matrix(0.010850694444444444,0,0,0.010850694444444444,82.18315972222221,0)" xlink:href="#H"/><use transform="matrix(0.010850694444444444,0,0,0.010850694444444444,95.85503472222221,0)" xlink:href="#y"/></g><path fill="#3a414a" d="M1069-223c-3 116 77 143 195 137V0H682v-86c118 6 195-21 195-137v-291c-111 68-213 137-388 137-177 0-284-88-284-262v-233c2-108-66-143-174-140v-86h540v86c-108-4-174 30-174 138v215c0 99 61 148 164 147 135-1 220-45 316-90v-270c2-109-67-143-175-140v-86h562v86c-118-6-195 22-195 138v651" id="Y"/><g id="m"><use transform="matrix(0.010850694444444444,0,0,0.010850694444444444,0,0)" xlink:href="#v"/><use transform="matrix(0.010850694444444444,0,0,0.010850694444444444,12.825520833333332,0)" xlink:href="#U"/><use transform="matrix(0.010850694444444444,0,0,0.010850694444444444,23.00347222222222,0)" xlink:href="#L"/><use transform="matrix(0.010850694444444444,0,0,0.010850694444444444,36.642795138888886,0)" xlink:href="#y"/><use transform="matrix(0.010850694444444444,0,0,0.010850694444444444,49.15364583333333,0)" xlink:href="#F"/><use transform="matrix(0.010850694444444444,0,0,0.010850694444444444,64.44227430555554,0)" xlink:href="#S"/><use transform="matrix(0.010850694444444444,0,0,0.010850694444444444,79.73090277777777,0)" xlink:href="#Y"/><use transform="matrix(0.010850694444444444,0,0,0.010850694444444444,93.95616319444444,0)" xlink:href="#z"/><use transform="matrix(0.010850694444444444,0,0,0.010850694444444444,105.84852430555556,0)" xlink:href="#F"/><use transform="matrix(0.010850694444444444,0,0,0.010850694444444444,121.13715277777777,0)" xlink:href="#S"/><use transform="matrix(0.010850694444444444,0,0,0.010850694444444444,136.42578125,0)" xlink:href="#T"/></g><g id="n"><use transform="matrix(0.010850694444444444,0,0,0.010850694444444444,0,0)" xlink:href="#W"/><use transform="matrix(0.010850694444444444,0,0,0.010850694444444444,16.493055555555554,0)" xlink:href="#J"/><use transform="matrix(0.010850694444444444,0,0,0.010850694444444444,31.336805555555554,0)" xlink:href="#z"/><use transform="matrix(0.010850694444444444,0,0,0.010850694444444444,43.229166666666664,0)" xlink:href="#L"/><use transform="matrix(0.010850694444444444,0,0,0.010850694444444444,56.86848958333333,0)" xlink:href="#y"/><use transform="matrix(0.010850694444444444,0,0,0.010850694444444444,69.37934027777777,0)" xlink:href="#A"/><use transform="matrix(0.010850694444444444,0,0,0.010850694444444444,81.53211805555554,0)" xlink:href="#v"/><use transform="matrix(0.010850694444444444,0,0,0.010850694444444444,94.35763888888887,0)" xlink:href="#L"/><use transform="matrix(0.010850694444444444,0,0,0.010850694444444444,107.99696180555556,0)" xlink:href="#G"/></g><path fill="#3a414a" d="M868-871c27-98-34-147-137-141v-86h426v86c-114-4-130 76-162 160C865-510 751-153 616 182c-65 163-156 280-360 302-50 6-113 8-178 8v-97c285-2 394-182 461-403L160-903c-28-65-56-114-152-109v-86h492v86c-114-14-152 77-113 174 88 217 187 419 248 662h6c62-238 163-461 227-695" id="Z"/><g id="o"><use transform="matrix(0.010850694444444444,0,0,0.010850694444444444,0,0)" xlink:href="#I"/><use transform="matrix(0.010850694444444444,0,0,0.010850694444444444,17.491319444444443,0)" xlink:href="#Z"/><use transform="matrix(0.010850694444444444,0,0,0.010850694444444444,30.045572916666664,0)" xlink:href="#A"/><use transform="matrix(0.010850694444444444,0,0,0.010850694444444444,42.19835069444444,0)" xlink:href="#y"/><use transform="matrix(0.010850694444444444,0,0,0.010850694444444444,54.709201388888886,0)" xlink:href="#R"/><use transform="matrix(0.010850694444444444,0,0,0.010850694444444444,69.78081597222221,0)" xlink:href="#S"/><use transform="matrix(0.010850694444444444,0,0,0.010850694444444444,85.06944444444443,0)" xlink:href="#S"/></g><path fill="#3a414a" d="M1276-752c0-228-89-360-318-358h-77v739c279 17 395-114 395-381zM881-274c-14 145 53 199 194 188V0H489v-86c139 10 210-41 195-188C305-261 68-409 68-760c0-307 190-445 503-448h113c10-134-63-177-195-168v-86h586v86c-130-8-205 33-194 168h112c313 3 504 142 504 448 0 351-236 499-616 486zM289-752c0 266 116 399 395 381v-739h-78c-228-2-317 131-317 358" id="aa"/><path fill="#3a414a" d="M1067-522c0 341-144 541-483 542-156 0-273-53-352-160S113-412 113-635c0-445 91-782 493-825 115-12 239-20 324-62 22-11 37-26 45-45h65c1 247-220 252-442 279-192 23-310 70-339 248-9 54-16 122-19 204h8c51-137 165-225 350-225 325 0 470 202 469 539zM584-86c241 0 286-193 286-436 0-244-45-433-286-434-240-1-274 192-275 434 0 142 22 250 65 324S487-86 584-86" id="ab"/><g id="p"><use transform="matrix(0.010850694444444444,0,0,0.010850694444444444,0,0)" xlink:href="#aa"/><use transform="matrix(0.010850694444444444,0,0,0.010850694444444444,17.04644097222222,0)" xlink:href="#y"/><use transform="matrix(0.010850694444444444,0,0,0.010850694444444444,29.557291666666664,0)" xlink:href="#ab"/><use transform="matrix(0.010850694444444444,0,0,0.010850694444444444,42.36111111111111,0)" xlink:href="#L"/><use transform="matrix(0.010850694444444444,0,0,0.010850694444444444,56.00043402777778,0)" xlink:href="#S"/><use transform="matrix(0.010850694444444444,0,0,0.010850694444444444,71.2890625,0)" xlink:href="#H"/><use transform="matrix(0.010850694444444444,0,0,0.010850694444444444,84.9609375,0)" xlink:href="#y"/></g><path fill="#3a414a" d="M479-225C473-93 580-79 715-86V0H78v-86c122 7 194-27 194-147v-996c4-120-72-154-194-147v-86h1018l12 358h-107c-10-111-19-217-115-244-25-7-58-12-98-12H479v1135" id="ac"/><g id="q"><use transform="matrix(0.010850694444444444,0,0,0.010850694444444444,0,0)" xlink:href="#ac"/><use transform="matrix(0.010850694444444444,0,0,0.010850694444444444,11.577690972222221,0)" xlink:href="#z"/><use transform="matrix(0.010850694444444444,0,0,0.010850694444444444,23.470052083333332,0)" xlink:href="#F"/><use transform="matrix(0.010850694444444444,0,0,0.010850694444444444,38.75868055555556,0)" xlink:href="#z"/><use transform="matrix(0.010850694444444444,0,0,0.010850694444444444,50.65104166666667,0)" xlink:href="#L"/><use transform="matrix(0.010850694444444444,0,0,0.010850694444444444,64.29036458333334,0)" xlink:href="#y"/><use transform="matrix(0.010850694444444444,0,0,0.010850694444444444,76.80121527777779,0)" xlink:href="#A"/><use transform="matrix(0.010850694444444444,0,0,0.010850694444444444,88.95399305555556,0)" xlink:href="#v"/><use transform="matrix(0.010850694444444444,0,0,0.010850694444444444,101.77951388888889,0)" xlink:href="#L"/></g><g id="r"><use transform="matrix(0.010850694444444444,0,0,0.010850694444444444,0,0)" xlink:href="#W"/><use transform="matrix(0.010850694444444444,0,0,0.010850694444444444,16.493055555555554,0)" xlink:href="#J"/><use transform="matrix(0.010850694444444444,0,0,0.010850694444444444,31.336805555555554,0)" xlink:href="#S"/><use transform="matrix(0.010850694444444444,0,0,0.010850694444444444,46.62543402777778,0)" xlink:href="#C"/><use transform="matrix(0.010850694444444444,0,0,0.010850694444444444,57.56293402777778,0)" xlink:href="#y"/><use transform="matrix(0.010850694444444444,0,0,0.010850694444444444,70.07378472222221,0)" xlink:href="#F"/><use transform="matrix(0.010850694444444444,0,0,0.010850694444444444,85.36241319444443,0)" xlink:href="#S"/><use transform="matrix(0.010850694444444444,0,0,0.010850694444444444,100.65104166666666,0)" xlink:href="#z"/></g><g id="s"><use transform="matrix(0.010850694444444444,0,0,0.010850694444444444,0,0)" xlink:href="#H"/><use transform="matrix(0.010850694444444444,0,0,0.010850694444444444,13.45486111111111,0)" xlink:href="#v"/><use transform="matrix(0.010850694444444444,0,0,0.010850694444444444,26.280381944444443,0)" xlink:href="#F"/><use transform="matrix(0.010850694444444444,0,0,0.010850694444444444,41.569010416666664,0)" xlink:href="#H"/><use transform="matrix(0.010850694444444444,0,0,0.010850694444444444,55.240885416666664,0)" xlink:href="#L"/><use transform="matrix(0.010850694444444444,0,0,0.010850694444444444,68.88020833333333,0)" xlink:href="#z"/><use transform="matrix(0.010850694444444444,0,0,0.010850694444444444,80.77256944444444,0)" xlink:href="#A"/><use transform="matrix(0.010850694444444444,0,0,0.010850694444444444,92.92534722222221,0)" xlink:href="#F"/><use transform="matrix(0.010850694444444444,0,0,0.010850694444444444,108.21397569444441,0)" xlink:href="#v"/><use transform="matrix(0.010850694444444444,0,0,0.010850694444444444,121.03949652777776,0)" xlink:href="#U"/><use transform="matrix(0.010850694444444444,0,0,0.010850694444444444,131.21744791666666,0)" xlink:href="#v"/></g><g id="t"><use transform="matrix(0.010850694444444444,0,0,0.010850694444444444,0,0)" xlink:href="#v"/><use transform="matrix(0.010850694444444444,0,0,0.010850694444444444,12.825520833333332,0)" xlink:href="#U"/><use transform="matrix(0.010850694444444444,0,0,0.010850694444444444,23.00347222222222,0)" xlink:href="#L"/><use transform="matrix(0.010850694444444444,0,0,0.010850694444444444,36.642795138888886,0)" xlink:href="#y"/><use transform="matrix(0.010850694444444444,0,0,0.010850694444444444,49.15364583333333,0)" xlink:href="#F"/><use transform="matrix(0.010850694444444444,0,0,0.010850694444444444,64.44227430555554,0)" xlink:href="#S"/><use transform="matrix(0.010850694444444444,0,0,0.010850694444444444,79.73090277777777,0)" xlink:href="#Y"/><use transform="matrix(0.010850694444444444,0,0,0.010850694444444444,93.95616319444444,0)" xlink:href="#z"/><use transform="matrix(0.010850694444444444,0,0,0.010850694444444444,105.84852430555556,0)" xlink:href="#F"/><use transform="matrix(0.010850694444444444,0,0,0.010850694444444444,121.13715277777777,0)" xlink:href="#S"/><use transform="matrix(0.010850694444444444,0,0,0.010850694444444444,136.42578125,0)" xlink:href="#N"/></g></defs></g></svg>