<svg id="elVxc3jUAGq1" xmlns="http://www.w3.org/2000/svg" xmlns:xlink="http://www.w3.org/1999/xlink" viewBox="0 0 300 40" shape-rendering="geometricPrecision" text-rendering="geometricPrecision"><line x1="-150" y1="0" x2="150" y2="0" transform="translate(152 17.937105)" fill="none" stroke="#000" stroke-width="3"/><line x1="0" y1="-9.895161" x2="0" y2="9.895161" transform="matrix(-1 0 0 1 2 17.630632)" fill="none" stroke="#000" stroke-width="3"/><line x1="0" y1="-9.895161" x2="0" y2="9.895161" transform="matrix(-1 0 0 1 35.3 17.630634)" fill="none" stroke="#000" stroke-width="3"/><line x1="0" y1="-9.895161" x2="0" y2="9.895161" transform="matrix(-1 0 0 1 134.779349 17.937107)" fill="none" stroke="#000" stroke-width="3"/><line x1="0" y1="-9.895161" x2="0" y2="9.895161" transform="matrix(-1 0 0 1 234.622168 18.090345)" fill="none" stroke="#000" stroke-width="3"/><line x1="0" y1="-9.895161" x2="0" y2="9.895161" transform="matrix(-1 0 0 1 202 18.090345)" fill="none" stroke="#000" stroke-width="3"/><line x1="0" y1="-9.895161" x2="0" y2="9.895161" transform="matrix(-1 0 0 1 202 18.090345)" fill="none" stroke="#000" stroke-width="3"/><line x1="0" y1="-9.895161" x2="0" y2="9.895161" transform="matrix(-1 0 0 1 234.622168 18.090345)" fill="none" stroke="#000" stroke-width="3"/><line x1="0" y1="-9.895161" x2="0" y2="9.895161" transform="matrix(-1 0 0 1 102 18.396815)" fill="none" stroke="#000" stroke-width="3"/><line x1="0" y1="-9.895161" x2="0" y2="9.895161" transform="matrix(-1 0 0 1 267.922168 18.396815)" fill="none" stroke="#000" stroke-width="3"/><line x1="0" y1="-9.895161" x2="0" y2="9.895161" transform="matrix(-1 0 0 1 267.922168 18.396815)" fill="none" stroke="#000" stroke-width="3"/><line x1="0" y1="-9.895161" x2="0" y2="9.895161" transform="matrix(-1 0 0 1 134.779349 17.937107)" fill="none" stroke="#000" stroke-width="3"/><line x1="0" y1="-9.895161" x2="0" y2="9.895161" transform="matrix(-1 0 0 1 168.079349 18.243578)" fill="none" stroke="#000" stroke-width="3"/><line x1="0" y1="-9.895161" x2="0" y2="9.895161" transform="matrix(-1 0 0 1 168.079349 18.243578)" fill="none" stroke="#000" stroke-width="3"/><line x1="0" y1="-9.895161" x2="0" y2="9.895161" transform="matrix(-1 0 0 1 35.3 17.630634)" fill="none" stroke="#000" stroke-width="3"/><line x1="0" y1="-9.895161" x2="0" y2="9.895161" transform="matrix(-1 0 0 1 68.6 17.937105)" fill="none" stroke="#000" stroke-width="3"/><line x1="0" y1="-9.895161" x2="0" y2="9.895161" transform="matrix(-1 0 0 1 68.6 17.937105)" fill="none" stroke="#000" stroke-width="3"/><line x1="0" y1="-9.895161" x2="0" y2="9.895161" transform="translate(298 18.243578)" fill="none" stroke="#000" stroke-width="3"/><rect width="80.040832" height="28.693691" rx="5" ry="5" transform="matrix(2.494797 0 0 0.522763 34.936535 10.437107)" fill="#93caed" fill-opacity="0.8"/><rect width="80.040832" height="28.693691" rx="10" ry="10" transform="matrix(.408338 0 0 0.522763 102 10.437105)" fill="#32cd32" fill-opacity="0.8"/></svg>
