<svg id="es49xWoQz8X1" xmlns="http://www.w3.org/2000/svg" xmlns:xlink="http://www.w3.org/1999/xlink" viewBox="0 0 300 75" shape-rendering="geometricPrecision" text-rendering="geometricPrecision"><line x1="-150" y1="0" x2="150" y2="0" transform="translate(152 36.937105)" fill="none" stroke="#000" stroke-width="3"/><line x1="0" y1="-9.895161" x2="0" y2="9.895161" transform="matrix(-1 0 0 3.576198 2 36.630632)" fill="none" stroke="#000" stroke-width="3"/><line x1="0" y1="-9.895161" x2="0" y2="9.895161" transform="matrix(-1 0 0 3.576198 35.3 36.630634)" fill="none" stroke="#000" stroke-width="3"/><line x1="0" y1="-9.895161" x2="0" y2="9.895161" transform="matrix(-1 0 0 3.576198 134.779349 36.937107)" fill="none" stroke="#000" stroke-width="3"/><line x1="0" y1="-9.895161" x2="0" y2="9.895161" transform="matrix(-1 0 0 3.576198 234.622168 37.090345)" fill="none" stroke="#000" stroke-width="3"/><line x1="0" y1="-9.895161" x2="0" y2="9.895161" transform="matrix(-1 0 0 3.576198 202 37.090345)" fill="none" stroke="#000" stroke-width="3"/><line x1="0" y1="-9.895161" x2="0" y2="9.895161" transform="matrix(-1 0 0 3.576198 202 37.090345)" fill="none" stroke="#000" stroke-width="3"/><line x1="0" y1="-9.895161" x2="0" y2="9.895161" transform="matrix(-1 0 0 3.576198 234.622168 37.090345)" fill="none" stroke="#000" stroke-width="3"/><line x1="0" y1="-9.895161" x2="0" y2="9.895161" transform="matrix(-1 0 0 3.576198 102 37.396815)" fill="none" stroke="#000" stroke-width="3"/><line x1="0" y1="-9.895161" x2="0" y2="9.895161" transform="matrix(-1 0 0 3.576198 267.922168 37.396815)" fill="none" stroke="#000" stroke-width="3"/><line x1="0" y1="-9.895161" x2="0" y2="9.895161" transform="matrix(-1 0 0 3.576198 267.922168 37.396815)" fill="none" stroke="#000" stroke-width="3"/><line x1="0" y1="-9.895161" x2="0" y2="9.895161" transform="matrix(-1 0 0 3.576198 134.779349 36.937107)" fill="none" stroke="#000" stroke-width="3"/><line x1="0" y1="-9.895161" x2="0" y2="9.895161" transform="matrix(-1 0 0 3.576198 168.079349 37.243578)" fill="none" stroke="#000" stroke-width="3"/><line x1="0" y1="-9.895161" x2="0" y2="9.895161" transform="matrix(-1 0 0 3.576198 168.079349 37.243578)" fill="none" stroke="#000" stroke-width="3"/><line x1="0" y1="-9.895161" x2="0" y2="9.895161" transform="matrix(-1 0 0 3.576198 35.3 36.630634)" fill="none" stroke="#000" stroke-width="3"/><line x1="0" y1="-9.895161" x2="0" y2="9.895161" transform="matrix(-1 0 0 3.576198 68.6 36.937105)" fill="none" stroke="#000" stroke-width="3"/><line x1="0" y1="-9.895161" x2="0" y2="9.895161" transform="matrix(-1 0 0 3.576198 68.6 36.937105)" fill="none" stroke="#000" stroke-width="3"/><line x1="0" y1="-9.895161" x2="0" y2="9.895161" transform="matrix(1 0 0 3.576198 298 37.243578)" fill="none" stroke="#000" stroke-width="3"/><rect width="199" height="57.66" rx="5" ry="5" transform="translate(35.622168 8.57)" fill="none" fill-opacity="0.8" stroke="#00f" stroke-width="3"/><rect width="161" height="47" rx="5" ry="5" transform="translate(39.622168 13.4)" fill="none" fill-opacity="0.8" stroke="#f00" stroke-width="3"/><rect width="127" height="35" rx="5" ry="5" transform="translate(69.622168 19.4)" fill="none" fill-opacity="0.8" stroke="#0f0" stroke-width="3"/></svg>
