<svg id="eYDMTe95Iw01" xmlns="http://www.w3.org/2000/svg" xmlns:xlink="http://www.w3.org/1999/xlink" viewBox="0 0 300 40" shape-rendering="geometricPrecision" text-rendering="geometricPrecision"><line x1="-150" y1="0" x2="150" y2="0" transform="translate(150 17.937105)" fill="none" stroke="#000" stroke-width="3"/><line x1="0" y1="-9.895161" x2="0" y2="9.895161" transform="matrix(-1 0 0 1 0 17.630632)" fill="none" stroke="#000" stroke-width="3"/><line x1="-0.263871" y1="-9.895161" x2="0.263871" y2="9.895161" transform="translate(100.413961 17.630632)" fill="none" stroke="#000" stroke-width="3"/><line x1="0" y1="-9.895161" x2="0" y2="9.895161" transform="translate(200.157181 17.630632)" fill="none" stroke="#000" stroke-width="3"/><line x1="0" y1="-9.895161" x2="0" y2="9.895161" transform="translate(300 17.324162)" fill="none" stroke="#000" stroke-width="3"/><rect width="80.040832" height="37.857151" rx="5" ry="5" transform="matrix(1.108108 0 0 0.538954 6.031883 7.735474)" fill="none" stroke="#93caed" stroke-width="3"/><rect width="80.040832" height="37.857151" rx="5" ry="5" transform="matrix(1.108108 0 0 0.538954 105.653057 7.735474)" fill="none" stroke="#93caed" stroke-width="3"/><rect width="80.040832" height="37.857151" rx="5" ry="5" transform="matrix(1.108108 0 0 0.538954 205.455525 7.735474)" fill="none" stroke="#93caed" stroke-width="3"/></svg>
