<svg id="eFhDpCWZ1251" xmlns="http://www.w3.org/2000/svg" xmlns:xlink="http://www.w3.org/1999/xlink" viewBox="0 0 300 40" shape-rendering="geometricPrecision" text-rendering="geometricPrecision"><line x1="-150" y1="0" x2="150" y2="0" transform="translate(152 17.937105)" fill="none" stroke="#000" stroke-width="3"/><line x1="0" y1="-9.895161" x2="0" y2="9.895161" transform="matrix(-1 0 0 1 2 17.630632)" fill="none" stroke="#000" stroke-width="3"/><line x1="0" y1="-9.895161" x2="0" y2="9.895161" transform="matrix(-1 0 0 1 202 18.090345)" fill="none" stroke="#000" stroke-width="3"/><line x1="0" y1="-9.895161" x2="0" y2="9.895161" transform="matrix(-1 0 0 1 202 18.090345)" fill="none" stroke="#000" stroke-width="3"/><line x1="0" y1="-9.895161" x2="0" y2="9.895161" transform="matrix(-1 0 0 1 102 18.396815)" fill="none" stroke="#000" stroke-width="3"/><line x1="0" y1="-9.895161" x2="0" y2="9.895161" transform="translate(298 18.243578)" fill="none" stroke="#000" stroke-width="3"/><rect width="80.040832" height="28.693691" rx="5" ry="5" transform="matrix(1.095007 0 0 0.522763 8.632104 10.130632)" fill="#93caed" fill-opacity="0.8"/><rect width="80.040832" height="28.693691" rx="5" ry="5" transform="matrix(1.095007 0 0 0.522763 206.345086 10.743578)" fill="#93caed" fill-opacity="0.8"/><rect width="80.040832" height="28.693691" rx="5" ry="5" transform="matrix(1.095007 0 0 0.522763 108.177364 10.437105)" fill="#93caed" fill-opacity="0.8"/></svg>
